<?xml version="1.0" encoding="utf-8"?>
<svg xmlns="http://www.w3.org/2000/svg" viewBox="0 0 24 24" fill="#000000"><path d="M 12 2 C 6.5 2 2 6.5 2 12 C 2 17.5 6.5 22 12 22 C 17.5 22 22 17.5 22 12 C 22 6.5 17.5 2 12 2 z M 12 4 C 16.060626 4 19.432555 7.0686366 19.929688 11 L 15.855469 11 C 15.405591 9.2842135 13.850301 8 12 8 C 10.149698 8 8.5944085 9.2842135 8.1445312 11 L 4.0703125 11 C 4.5674453 7.0686366 7.9393738 4 12 4 z M 12 10 C 13.116414 10 14 10.883586 14 12 C 14 13.116414 13.116414 14 12 14 C 10.883586 14 10 13.116414 10 12 C 10 10.883586 10.883586 10 12 10 z M 4.0703125 13 L 8.1445312 13 C 8.5100416 14.39402 9.6059801 15.489958 11 15.855469 L 11 19.929688 C 7.3972071 19.474103 4.5258966 16.602793 4.0703125 13 z M 15.855469 13 L 19.929688 13 C 19.474103 16.602793 16.602793 19.474103 13 19.929688 L 13 15.855469 C 14.39402 15.489958 15.489958 14.39402 15.855469 13 z" fill="#000000"/></svg>
